<?xml version="1.0" standalone="no"?>
<!DOCTYPE svg PUBLIC "-//W3C//DTD SVG 20010904//EN"
 "http://www.w3.org/TR/2001/REC-SVG-20010904/DTD/svg10.dtd">
<svg version="1.0" xmlns="http://www.w3.org/2000/svg"
 width="610.000000pt" height="588.000000pt" viewBox="0 0 610.000000 588.000000"
 preserveAspectRatio="xMidYMid meet">

<g transform="translate(0.000000,588.000000) scale(0.100000,-0.100000)"
fill="#000000" stroke="none">
<path d="M1743 3825 c-8 -23 24 -100 57 -135 35 -37 29 -64 -19 -95 -38 -24
-85 -90 -76 -104 11 -18 34 -12 81 20 59 40 84 82 84 140 0 53 -39 139 -77
169 -31 24 -42 25 -50 5z m31 -22 c3 -10 9 -25 13 -33 5 -13 5 -13 -8 0 -19
19 -31 50 -20 50 5 0 11 -8 15 -17z m46 -49 c0 -8 5 -12 10 -9 17 11 11 -7 -7
-21 -17 -13 -17 -14 0 -8 9 3 17 2 17 -4 0 -15 -23 -20 -36 -8 -8 7 -9 17 -2
29 5 9 6 22 3 27 -3 6 -1 10 4 10 6 0 11 -7 11 -16z m37 -125 c1 -10 -3 -22
-9 -25 -7 -5 -9 -1 -5 9 3 10 2 17 -3 17 -6 0 -10 4 -10 8 0 17 26 8 27 -9z
m-42 -39 c-3 -5 -11 -10 -16 -10 -6 0 -7 5 -4 10 3 6 11 10 16 10 6 0 7 -4 4
-10z m5 -30 c-12 -17 -26 -28 -31 -25 -5 4 -9 0 -9 -7 0 -13 -50 -42 -58 -33
-3 3 0 17 7 31 11 26 12 26 26 8 9 -12 14 -14 15 -6 0 7 10 17 23 22 l22 10
-22 -3 c-12 -1 -21 3 -20 8 1 6 12 9 24 7 12 -1 24 2 28 8 3 5 8 10 11 10 3 0
-4 -14 -16 -30z"/>
<path d="M1737 3523 c-4 -3 -7 -11 -7 -17 0 -6 5 -5 12 2 6 6 9 14 7 17 -3 3
-9 2 -12 -2z"/>
<path d="M4423 3807 c-46 -50 -66 -88 -66 -127 l0 -37 -66 -12 c-78 -15 -259
-78 -279 -97 -19 -19 -10 -18 50 10 65 30 199 72 253 78 38 5 41 4 60 -35 24
-49 78 -94 122 -103 30 -6 31 -5 25 18 -11 36 -39 71 -51 63 -7 -3 -10 -1 -9
6 2 6 -3 14 -11 17 -8 2 -11 0 -7 -6 4 -6 -1 -8 -13 -5 -19 5 -37 43 -20 43 5
0 9 -7 9 -15 0 -8 5 -15 10 -15 15 0 12 11 -7 32 -12 13 -13 18 -3 18 7 0 10
3 7 6 -4 4 -13 1 -22 -6 -25 -21 -17 6 13 42 38 46 54 77 59 114 6 45 -18 50
-54 11z m46 6 c0 -5 -4 -17 -9 -28 -8 -17 -8 -16 -7 8 1 15 5 27 9 27 4 0 8
-3 7 -7z m-29 -13 c0 -5 -5 -10 -11 -10 -5 0 -7 5 -4 10 3 6 8 10 11 10 2 0 4
-4 4 -10z m-2 -55 c0 -13 -8 -30 -17 -37 -13 -10 -14 -10 -3 2 17 20 15 35 -3
20 -10 -9 -15 -9 -15 -1 0 6 5 11 10 11 6 0 10 7 10 15 0 8 4 15 9 15 5 0 9
-11 9 -25z m-38 -158 c0 -5 -4 -5 -10 -2 -5 3 -10 14 -10 23 0 15 2 15 10 2 5
-8 10 -19 10 -23z m42 -35 c-8 -2 -4 -11 10 -23 13 -10 18 -18 12 -19 -14 0
-37 27 -40 45 -1 9 4 11 14 7 10 -4 12 -7 4 -10z m48 -22 c23 -23 26 -31 7
-24 -13 4 -41 44 -32 44 3 0 14 -9 25 -20z"/>
<path d="M2256 3694 c-11 -30 -6 -105 10 -135 8 -17 13 -33 10 -36 -3 -3 -42
10 -85 31 -44 20 -85 36 -91 36 -6 0 -36 8 -68 19 -64 21 -166 37 -142 22 8
-5 35 -12 60 -16 74 -11 208 -56 272 -91 14 -7 33 -14 41 -14 9 0 15 -10 15
-25 0 -22 -2 -23 -12 -9 -8 10 -20 13 -36 9 -39 -10 -105 -60 -104 -78 1 -9
-3 -14 -8 -11 -6 4 -9 1 -6 -7 8 -23 35 -22 58 3 18 20 20 20 14 4 -7 -19 -5
-18 32 3 21 13 51 37 66 53 l26 30 46 -27 c25 -15 46 -23 46 -18 0 4 5 1 10
-9 10 -17 139 -92 147 -85 2 3 -20 19 -49 37 -29 18 -65 41 -80 51 -15 11 -32
19 -38 19 -6 0 -27 12 -46 27 -26 19 -32 28 -22 34 14 9 17 86 6 129 -8 27
-43 70 -57 70 -5 0 -12 -7 -15 -16z m29 -70 c-2 -20 -7 -40 -11 -43 -4 -3 -4
7 0 22 4 19 3 26 -4 22 -11 -7 -13 9 -3 44 9 36 24 1 18 -45z m35 2 c0 -3 -4
-8 -10 -11 -5 -3 -10 -1 -10 4 0 6 5 11 10 11 6 0 10 -2 10 -4z m-60 -150 c0
-3 -4 -8 -10 -11 -5 -3 -10 -1 -10 4 0 6 5 11 10 11 6 0 10 -2 10 -4z m-50
-31 c-9 -11 -9 -15 -1 -15 7 0 9 -5 6 -10 -5 -8 -12 -7 -23 2 -12 10 -16 10
-19 1 -6 -16 -33 -17 -33 -2 0 5 4 8 8 5 4 -2 19 4 32 15 30 22 47 25 30 4z"/>
<path d="M3931 3689 c-27 -29 -43 -107 -31 -150 6 -19 10 -37 10 -41 0 -7
-100 -68 -228 -138 -45 -25 -82 -48 -82 -52 0 -10 83 33 214 110 l110 64 18
-25 c24 -32 105 -80 124 -73 8 3 14 1 14 -4 0 -16 30 -11 37 5 8 21 -27 60
-39 43 -6 -10 -8 -9 -8 4 0 9 -16 25 -36 37 -40 24 -58 27 -49 9 4 -7 -2 -3
-13 9 -11 12 -22 19 -26 16 -12 -13 -5 14 14 52 24 46 27 127 6 144 -11 10
-19 7 -35 -10z m26 -87 c-4 -13 -5 -12 -6 4 0 12 -8 24 -16 28 -9 3 -12 12 -8
22 5 14 9 12 20 -10 8 -15 12 -35 10 -44z m-20 -4 c-3 -8 -6 -5 -6 6 -1 11 2
17 5 13 3 -3 4 -12 1 -19z m-4 -31 c3 -8 -1 -14 -8 -14 -7 0 -11 6 -8 14 3 7
6 13 8 13 2 0 5 -6 8 -13z m47 -113 c0 5 6 3 13 -3 8 -6 17 -8 20 -4 4 3 7 -1
7 -10 0 -9 -3 -17 -8 -17 -14 0 -52 31 -52 43 0 7 4 6 10 -3 5 -8 10 -11 10
-6z m78 -27 c2 -11 -3 -17 -15 -17 -15 0 -16 2 -3 10 13 9 13 11 0 21 -13 9
-13 10 0 6 8 -2 16 -11 18 -20z m45 -32 c-3 -9 -8 -14 -10 -11 -3 3 -2 9 2 15
9 16 15 13 8 -4z"/>
<path d="M1640 3643 c-65 -7 -230 -66 -238 -86 -2 -4 -8 -4 -14 -1 -6 4 -14 0
-20 -7 -7 -12 -9 -11 -7 1 3 32 -2 38 -43 55 -41 16 -133 24 -145 12 -25 -26
77 -81 138 -75 45 4 57 -13 36 -46 -23 -34 -39 -124 -27 -147 6 -10 14 -19 19
-19 41 0 95 179 59 193 -21 9 31 45 97 66 88 30 151 42 234 46 40 2 76 6 79 9
6 6 -109 5 -168 -1z m-356 -39 c9 -3 16 -11 16 -16 0 -6 -6 -5 -15 2 -13 10
-15 9 -15 -9 0 -13 -4 -19 -11 -16 -6 4 -8 13 -5 20 3 9 -5 15 -22 18 -25 4
-25 4 5 6 17 0 38 -2 47 -5z m51 -24 c3 -5 1 -10 -4 -10 -6 0 -11 5 -11 10 0
6 2 10 4 10 3 0 8 -4 11 -10z m-35 -20 c0 -5 -2 -10 -4 -10 -3 0 -8 5 -11 10
-3 6 -1 10 4 10 6 0 11 -4 11 -10z m93 -62 c4 -12 1 -25 -4 -29 -6 -4 -9 -15
-5 -25 3 -11 1 -26 -4 -34 -7 -11 -10 -6 -10 21 0 19 -5 40 -12 47 -8 8 -9 12
-1 12 6 0 14 -6 17 -12 3 -7 3 -1 0 15 -7 32 11 37 19 5z m-46 -70 c-3 -8 -6
-5 -6 6 -1 11 2 17 5 13 3 -3 4 -12 1 -19z m10 -39 c1 -10 -4 -22 -10 -28 -9
-7 -12 -2 -12 18 -1 30 20 39 22 10z"/>
<path d="M4440 3640 c0 -10 85 -8 95 2 4 4 -16 7 -44 6 -28 0 -51 -4 -51 -8z"/>
<path d="M4612 3624 c36 -7 103 -27 147 -45 73 -29 81 -34 74 -53 -13 -36 -6
-95 19 -143 27 -56 44 -64 58 -29 10 27 -11 128 -32 153 -16 20 0 30 55 36 53
5 87 25 43 25 -14 0 -26 -4 -26 -9 0 -4 -9 -7 -20 -6 -42 3 2 22 53 22 56 0
77 8 77 29 0 37 -143 18 -187 -24 l-24 -23 -77 31 c-100 39 -149 52 -192 51
-27 -1 -19 -4 32 -15z m338 -29 c-7 -8 -18 -15 -24 -15 -6 0 -2 7 8 15 25 19
32 19 16 0z m-55 -34 c-8 -14 -25 -14 -25 0 0 5 5 7 10 4 6 -3 10 -1 10 6 0 7
3 10 6 6 3 -3 3 -10 -1 -16z m-48 -73 c-3 -7 -5 -2 -5 12 0 14 2 19 5 13 2 -7
2 -19 0 -25z m13 -28 c0 -5 -4 -10 -10 -10 -5 0 -10 5 -10 10 0 6 5 10 10 10
6 0 10 -4 10 -10z m17 -40 c-2 -23 -12 -26 -20 -6 -3 8 -1 17 6 20 7 2 13 5
14 5 1 1 1 -8 0 -19z m20 -12 c-3 -7 -5 -2 -5 12 0 14 2 19 5 13 2 -7 2 -19 0
-25z m3 -37 c0 -11 -5 -23 -11 -26 -6 -4 -9 0 -7 11 2 11 -2 18 -9 17 -7 -2
-13 2 -13 7 0 6 9 10 20 10 13 0 20 -7 20 -19z"/>
<path d="M3975 3520 c-3 -5 -1 -10 4 -10 6 0 11 5 11 10 0 6 -2 10 -4 10 -3 0
-8 -4 -11 -10z"/>
<path d="M2636 3485 c-12 -31 -6 -104 11 -140 20 -42 13 -52 -21 -30 -18 12
-26 13 -26 5 0 -6 9 -14 20 -17 26 -7 25 -15 -1 -31 -17 -11 -20 -11 -13 0 6
10 5 11 -8 1 -8 -7 -19 -9 -24 -5 -4 4 -3 0 4 -10 10 -12 10 -18 1 -24 -7 -4
-9 -3 -6 3 13 21 -22 21 -50 0 -38 -29 -44 -39 -31 -54 23 -28 140 14 175 63
19 26 20 26 64 11 24 -9 67 -26 94 -38 28 -13 55 -24 60 -25 6 -1 42 -12 80
-25 78 -26 78 -26 102 -28 36 -2 -6 -19 -102 -39 -55 -12 -118 -24 -140 -27
-76 -12 -95 -17 -95 -24 0 -9 69 3 265 46 138 30 124 29 195 9 62 -18 274 -56
305 -55 29 1 -18 13 -187 45 -82 15 -148 30 -148 33 0 3 42 19 93 35 50 17
126 44 169 62 114 47 123 48 142 19 18 -28 80 -63 117 -66 40 -4 69 1 69 10 0
11 -46 56 -57 56 -4 0 -20 9 -36 19 -15 10 -36 16 -46 13 -14 -3 -21 2 -25 17
-5 17 -8 18 -15 6 -6 -8 -13 -11 -17 -7 -4 4 1 16 10 26 10 11 15 25 10 32 -4
8 -3 10 4 5 13 -8 14 -4 17 72 3 92 -39 95 -69 5 -20 -58 -20 -94 -1 -119 8
-10 15 -22 15 -25 0 -4 -35 -19 -77 -34 -43 -15 -82 -31 -88 -35 -5 -4 -68
-24 -138 -45 -105 -30 -133 -35 -155 -26 -15 5 -56 17 -91 26 -59 15 -213 73
-253 95 -10 6 -25 10 -33 10 -12 0 -13 4 -6 19 6 10 7 21 4 25 -3 3 -1 6 5 6
15 0 16 76 2 85 -6 4 -9 9 -6 13 6 12 -30 67 -46 70 -9 2 -18 -4 -22 -13z m23
-48 c1 -5 -3 -5 -9 -2 -5 3 -10 16 -9 28 0 21 1 21 9 2 5 -11 9 -24 9 -28z
m923 16 c-5 -25 -6 -25 -13 -8 -11 29 -10 35 5 35 9 0 12 -8 8 -27z m-886 -79
c-8 -31 -15 -27 -18 9 -2 26 -18 39 -18 15 0 -6 -3 -8 -6 -5 -4 4 -1 13 6 21
19 23 44 -6 36 -40z m835 -1 c-8 -15 -10 -15 -11 -2 0 17 10 32 18 25 2 -3 -1
-13 -7 -23z m39 2 c-7 -9 -15 -13 -17 -11 -7 7 7 26 19 26 6 0 6 -6 -2 -15z
m-36 -41 c3 -8 2 -12 -4 -9 -6 3 -10 10 -10 16 0 14 7 11 14 -7z m-844 -26 c0
-19 -16 -5 -17 14 -2 18 0 20 7 8 5 -8 10 -18 10 -22z m-40 -63 c-14 -17 -30
-20 -30 -4 0 5 5 7 10 4 6 -3 10 -1 10 4 0 6 5 11 11 11 8 0 8 -5 -1 -15z
m960 11 c0 -3 -4 -8 -10 -11 -5 -3 -10 -1 -10 4 0 6 5 11 10 11 6 0 10 -2 10
-4z m-1050 -16 c0 -5 -8 -10 -17 -10 -15 0 -16 2 -3 10 19 12 20 12 20 0z
m1115 0 c4 -6 11 -8 16 -5 5 4 9 2 9 -4 0 -18 -15 -18 -32 1 -10 10 -14 18 -9
18 6 0 13 -5 16 -10z m-1065 -18 c0 -5 -16 -13 -35 -19 -20 -6 -35 -7 -35 -2
0 5 -4 9 -10 9 -5 0 -7 -7 -4 -15 5 -11 2 -13 -9 -9 -30 11 -7 33 34 32 22 0
43 2 46 6 9 8 13 8 13 -2z m1007 2 c-3 -3 -12 -4 -19 -1 -8 3 -5 6 6 6 11 1
17 -2 13 -5z m46 -18 c4 -10 1 -13 -9 -9 -15 6 -19 23 -5 23 5 0 11 -7 14 -14z
m60 1 c3 -7 -3 -13 -14 -14 -15 -1 -16 1 -6 12 15 18 14 18 20 2z"/>
<path d="M1300 2616 c0 -64 -4 -88 -16 -100 -8 -9 -11 -16 -6 -16 25 0 41 40
47 118 7 72 6 82 -9 82 -13 0 -16 -13 -16 -84z"/>
<path d="M1403 2620 c-30 -79 -30 -80 -9 -80 15 0 17 3 7 9 -7 5 -9 11 -4 14
5 3 18 34 28 68 l19 62 12 -29 c7 -16 15 -50 19 -76 6 -43 10 -48 32 -48 19 0
23 3 16 13 -6 6 -16 30 -22 52 -38 124 -55 127 -98 15z"/>
<path d="M1586 2683 c3 -10 1 -46 -4 -80 -8 -60 -8 -63 12 -63 13 0 17 3 9 8
-13 8 -3 116 12 129 4 5 5 0 2 -9 -4 -10 -3 -18 2 -18 5 0 8 -6 8 -12 -2 -24
26 -99 36 -95 6 2 19 27 29 57 29 85 41 87 36 4 -3 -68 -3 -70 19 -66 18 3 21
8 13 22 -6 10 -10 46 -10 79 0 53 -2 61 -19 61 -14 0 -23 -14 -36 -55 -10 -30
-21 -55 -24 -55 -4 0 -15 25 -26 55 -15 45 -22 55 -41 55 -16 0 -21 -5 -18
-17z"/>
<path d="M1835 2675 c-46 -45 -20 -136 38 -134 14 0 17 2 7 6 -8 3 -21 12 -27
21 -16 20 -17 94 -1 110 18 18 75 15 82 -4 12 -31 6 -97 -11 -116 -9 -10 -12
-18 -7 -18 18 0 64 62 64 86 0 66 -97 98 -145 49z"/>
<path d="M2035 2620 c0 -64 3 -80 15 -80 12 0 15 16 16 80 0 66 -2 80 -15 80
-13 0 -16 -14 -16 -80z"/>
<path d="M2185 2620 c0 -73 2 -80 20 -80 19 0 20 6 17 80 -3 67 -6 80 -20 80
-15 0 -17 -12 -17 -80z"/>
<path d="M2278 2684 c12 -8 22 -22 22 -30 0 -8 4 -13 9 -9 6 3 6 -6 1 -25 -5
-17 -9 -34 -9 -38 -1 -4 -8 -15 -16 -24 -22 -27 -2 -22 23 5 35 37 38 78 8
110 -14 15 -33 27 -43 27 -15 0 -14 -2 5 -16z"/>
<path d="M2395 2620 c0 -68 2 -80 17 -80 14 0 15 5 8 30 -5 19 -5 28 1 25 5
-4 9 17 9 49 0 47 -3 56 -17 56 -16 0 -18 -10 -18 -80z"/>
<path d="M2505 2620 c0 -64 3 -80 15 -80 12 0 14 12 12 60 -2 36 0 60 6 60 6
0 12 -6 15 -12 2 -7 7 -10 11 -7 13 12 -17 59 -38 59 -20 0 -21 -6 -21 -80z"/>
<path d="M2630 2639 l0 -62 -22 29 c-12 16 -23 31 -24 33 -2 1 -8 0 -14 -4 -8
-5 -6 -14 7 -29 11 -11 27 -34 37 -49 9 -15 21 -25 26 -22 4 3 8 36 7 73 0 37
3 73 7 80 4 7 1 12 -8 12 -13 0 -16 -12 -16 -61z"/>
<path d="M2730 2678 c-11 -12 -18 -28 -15 -36 3 -8 0 -10 -7 -6 -17 11 -1 -56
19 -78 9 -10 28 -17 42 -17 24 2 24 2 4 6 -13 2 -23 11 -23 19 0 8 -4 13 -9
10 -4 -3 -7 17 -7 45 2 55 14 69 58 69 17 0 31 -7 38 -19 13 -25 13 -77 0
-101 -8 -15 -7 -18 3 -14 38 14 46 87 14 124 -24 29 -90 27 -117 -2z"/>
<path d="M2903 2693 c3 -5 15 -41 26 -80 28 -95 47 -97 79 -10 13 34 27 70 32
79 7 13 5 16 -9 15 -11 -1 -17 -7 -14 -17 2 -8 -7 -40 -21 -70 -14 -30 -25
-49 -25 -42 -1 7 -6 10 -13 6 -7 -5 -9 -2 -5 9 3 8 1 33 -5 54 -7 21 -11 44
-9 51 1 6 -8 12 -19 12 -12 0 -19 -3 -17 -7z"/>
<path d="M3177 2628 c2 -49 -1 -74 -10 -80 -7 -5 0 -7 18 -7 17 0 25 3 19 5
-10 4 -10 66 0 132 2 15 -2 22 -13 22 -14 0 -16 -11 -14 -72z"/>
<path d="M3265 2690 c3 -5 -5 -25 -19 -43 -24 -32 -25 -34 -9 -58 24 -34 40
-49 53 -49 6 0 0 15 -13 33 -39 52 -39 54 -6 91 29 34 30 36 9 36 -11 0 -18
-4 -15 -10z"/>
<path d="M3391 2678 c-5 -13 -18 -47 -30 -76 -25 -63 -25 -62 -6 -62 9 0 15 9
15 23 0 13 3 27 7 31 4 4 8 13 8 19 2 24 17 67 25 67 4 0 11 -12 14 -27 21
-89 31 -113 49 -113 14 0 17 3 10 13 -6 6 -18 42 -29 80 -14 51 -23 67 -37 67
-9 0 -21 -10 -26 -22z"/>
<path d="M3552 2644 c-2 -31 -7 -67 -12 -80 -8 -21 -7 -24 13 -23 12 0 17 3
12 5 -11 4 -10 54 2 104 5 21 9 15 27 -39 12 -36 27 -66 33 -68 6 -2 22 29 36
69 l25 73 3 -60 c1 -33 2 -66 2 -72 -1 -7 9 -13 21 -13 11 0 17 4 11 8 -5 4
-10 40 -10 80 0 65 -2 72 -19 70 -12 -2 -25 -22 -40 -62 l-22 -59 -18 49 c-10
27 -19 55 -22 62 -2 6 -11 12 -21 12 -15 0 -19 -10 -21 -56z"/>
<path d="M3802 2680 c-52 -48 -31 -141 31 -139 22 0 22 1 2 10 -11 6 -25 25
-31 44 -9 29 -8 40 7 65 25 40 70 42 87 5 18 -39 14 -83 -8 -105 -11 -11 -16
-20 -11 -20 12 0 38 26 52 51 12 24 3 73 -18 94 -21 22 -85 19 -111 -5z"/>
<path d="M3998 2620 c-2 -44 0 -80 3 -80 13 0 28 49 31 103 3 48 0 57 -14 57
-14 0 -17 -13 -20 -80z"/>
<path d="M4154 2620 c-1 -75 0 -80 20 -79 12 0 16 3 9 6 -12 4 -11 40 2 126 3
21 0 27 -13 27 -15 0 -17 -11 -18 -80z"/>
<path d="M4265 2620 c0 -79 0 -80 25 -80 18 0 21 3 11 9 -10 6 -12 21 -8 51 3
24 1 54 -4 67 -5 15 -5 22 0 18 5 -3 12 -1 16 5 3 6 -4 10 -17 10 -22 0 -23
-3 -23 -80z"/>
<path d="M4342 2693 c29 -7 39 -30 36 -79 -2 -40 -7 -51 -28 -61 -19 -10 -21
-13 -7 -13 28 0 67 49 67 85 0 41 -18 64 -55 69 -16 2 -22 1 -13 -1z"/>
<path d="M4475 2620 c0 -64 3 -80 15 -80 12 0 15 16 16 80 0 66 -2 80 -15 80
-13 0 -16 -14 -16 -80z"/>
<path d="M4544 2690 c37 -11 46 -25 46 -72 0 -25 -7 -45 -20 -58 -11 -11 -15
-20 -10 -20 17 0 57 47 57 67 0 10 -4 24 -10 31 -6 8 -5 12 4 12 7 0 3 10 -11
25 -16 17 -34 25 -54 24 l-31 -1 29 -8z"/>
<path d="M4688 2629 c3 -53 1 -74 -9 -80 -10 -6 -8 -9 8 -9 19 0 21 5 19 41
-2 23 0 59 4 80 6 32 5 39 -9 39 -14 0 -16 -10 -13 -71z"/>
<path d="M4795 2620 c0 -47 4 -80 10 -80 6 0 10 21 9 48 -3 81 4 88 38 40 16
-24 37 -55 46 -70 9 -16 20 -28 25 -28 4 0 8 26 9 58 0 31 2 69 2 85 1 15 -3
27 -9 27 -6 0 -9 -23 -7 -60 4 -64 -6 -76 -28 -35 -7 14 -17 25 -22 25 -5 0
-6 5 -3 10 3 6 2 10 -3 10 -5 0 -15 11 -22 25 -7 14 -20 25 -29 25 -13 0 -16
-14 -16 -80z"/>
<path d="M2127 2571 c-2 -11 -15 -21 -28 -24 -19 -3 -17 -5 9 -6 28 -1 32 2
32 24 0 30 -6 32 -13 6z"/>
<path d="M4083 2564 c-20 -22 -20 -24 -3 -24 10 0 20 10 23 22 8 30 5 31 -20
2z"/>
<path d="M1029 2561 c-23 -19 -23 -21 -9 -48 19 -34 54 -41 81 -17 23 21 24
47 3 68 -21 21 -47 20 -75 -3z m27 -19 c1 -7 0 -8 -3 -2 -3 8 -9 7 -19 -1 -12
-10 -13 -9 -8 5 7 18 26 17 30 -2z m31 -13 c-9 -6 -15 -14 -12 -20 4 -5 -3 -9
-14 -9 -12 0 -21 5 -21 11 0 5 4 8 8 5 5 -3 16 4 26 15 10 12 20 18 24 14 4
-3 -1 -11 -11 -16z"/>
<path d="M5127 2562 c-10 -10 -17 -26 -17 -36 0 -17 9 -17 59 2 9 3 12 1 8 -5
-4 -6 -1 -14 5 -17 7 -3 -2 -3 -20 0 -25 3 -33 1 -30 -8 6 -18 46 -22 64 -8
17 15 19 61 2 78 -18 18 -53 15 -71 -6z m51 -5 c13 4 14 3 6 -6 -13 -14 -47
-3 -37 12 5 8 8 8 10 0 3 -7 12 -9 21 -6z"/>
<path d="M4020 2550 c0 -5 5 -10 11 -10 5 0 7 5 4 10 -3 6 -8 10 -11 10 -2 0
-4 -4 -4 -10z"/>
</g>
</svg>
